<svg class="rich-terminal" viewBox="0 0 1336 391.59999999999997" xmlns="http://www.w3.org/2000/svg">
    <!-- Generated with Rich https://www.textualize.io -->
    <style>

    @font-face {
        font-family: "Fira Code";
        src: local("FiraCode-Regular"),
                url("https://cdnjs.cloudflare.com/ajax/libs/firacode/6.2.0/woff2/FiraCode-Regular.woff2") format("woff2"),
                url("https://cdnjs.cloudflare.com/ajax/libs/firacode/6.2.0/woff/FiraCode-Regular.woff") format("woff");
        font-style: normal;
        font-weight: 400;
    }
    @font-face {
        font-family: "Fira Code";
        src: local("FiraCode-Bold"),
                url("https://cdnjs.cloudflare.com/ajax/libs/firacode/6.2.0/woff2/FiraCode-Bold.woff2") format("woff2"),
                url("https://cdnjs.cloudflare.com/ajax/libs/firacode/6.2.0/woff/FiraCode-Bold.woff") format("woff");
        font-style: bold;
        font-weight: 700;
    }

    .terminal-102656438-matrix {
        font-family: Fira Code, monospace;
        font-size: 20px;
        line-height: 24.4px;
        font-variant-east-asian: full-width;
    }

    .terminal-102656438-title {
        font-size: 18px;
        font-weight: bold;
        font-family: arial;
    }

    .terminal-102656438-r1 { fill: #67e8f9;font-weight: bold }
.terminal-102656438-r2 { fill: #c5c8c6 }
    </style>

    <defs>
    <clipPath id="terminal-102656438-clip-terminal">
      <rect x="0" y="0" width="1316.6" height="340.59999999999997" />
    </clipPath>
    <clipPath id="terminal-102656438-line-0">
    <rect x="0" y="1.5" width="1317.6" height="24.65"/>
            </clipPath>
<clipPath id="terminal-102656438-line-1">
    <rect x="0" y="25.9" width="1317.6" height="24.65"/>
            </clipPath>
<clipPath id="terminal-102656438-line-2">
    <rect x="0" y="50.3" width="1317.6" height="24.65"/>
            </clipPath>
<clipPath id="terminal-102656438-line-3">
    <rect x="0" y="74.7" width="1317.6" height="24.65"/>
            </clipPath>
<clipPath id="terminal-102656438-line-4">
    <rect x="0" y="99.1" width="1317.6" height="24.65"/>
            </clipPath>
<clipPath id="terminal-102656438-line-5">
    <rect x="0" y="123.5" width="1317.6" height="24.65"/>
            </clipPath>
<clipPath id="terminal-102656438-line-6">
    <rect x="0" y="147.9" width="1317.6" height="24.65"/>
            </clipPath>
<clipPath id="terminal-102656438-line-7">
    <rect x="0" y="172.3" width="1317.6" height="24.65"/>
            </clipPath>
<clipPath id="terminal-102656438-line-8">
    <rect x="0" y="196.7" width="1317.6" height="24.65"/>
            </clipPath>
<clipPath id="terminal-102656438-line-9">
    <rect x="0" y="221.1" width="1317.6" height="24.65"/>
            </clipPath>
<clipPath id="terminal-102656438-line-10">
    <rect x="0" y="245.5" width="1317.6" height="24.65"/>
            </clipPath>
<clipPath id="terminal-102656438-line-11">
    <rect x="0" y="269.9" width="1317.6" height="24.65"/>
            </clipPath>
<clipPath id="terminal-102656438-line-12">
    <rect x="0" y="294.3" width="1317.6" height="24.65"/>
            </clipPath>
    </defs>

    <rect fill="#292929" stroke="rgba(255,255,255,0.35)" stroke-width="1" x="1" y="1" width="1334" height="389.6" rx="8"/><text class="terminal-102656438-title" fill="#c5c8c6" text-anchor="middle" x="667" y="27">DevAgent&#160;Edit&#160;Preview</text>
            <g transform="translate(26,22)">
            <circle cx="0" cy="0" r="7" fill="#ff5f57"/>
            <circle cx="22" cy="0" r="7" fill="#febc2e"/>
            <circle cx="44" cy="0" r="7" fill="#28c840"/>
            </g>
        
    <g transform="translate(9, 41)" clip-path="url(#terminal-102656438-clip-terminal)">
    <rect fill="#06101d" x="0" y="1.5" width="24.4" height="24.65" shape-rendering="crispEdges"/><rect fill="#06101d" x="24.4" y="1.5" width="207.4" height="24.65" shape-rendering="crispEdges"/><rect fill="#06101d" x="231.8" y="1.5" width="317.2" height="24.65" shape-rendering="crispEdges"/><rect fill="#06101d" x="549" y="1.5" width="24.4" height="24.65" shape-rendering="crispEdges"/><rect fill="#06101d" x="0" y="25.9" width="12.2" height="24.65" shape-rendering="crispEdges"/><rect fill="#06101d" x="12.2" y="25.9" width="549" height="24.65" shape-rendering="crispEdges"/><rect fill="#06101d" x="561.2" y="25.9" width="12.2" height="24.65" shape-rendering="crispEdges"/><rect fill="#06101d" x="0" y="50.3" width="12.2" height="24.65" shape-rendering="crispEdges"/><rect fill="#06101d" x="12.2" y="50.3" width="24.4" height="24.65" shape-rendering="crispEdges"/><rect fill="#06101d" x="36.6" y="50.3" width="183" height="24.65" shape-rendering="crispEdges"/><rect fill="#06101d" x="219.6" y="50.3" width="317.2" height="24.65" shape-rendering="crispEdges"/><rect fill="#06101d" x="536.8" y="50.3" width="24.4" height="24.65" shape-rendering="crispEdges"/><rect fill="#06101d" x="561.2" y="50.3" width="12.2" height="24.65" shape-rendering="crispEdges"/><rect fill="#06101d" x="0" y="74.7" width="12.2" height="24.65" shape-rendering="crispEdges"/><rect fill="#06101d" x="12.2" y="74.7" width="24.4" height="24.65" shape-rendering="crispEdges"/><rect fill="#06101d" x="36.6" y="74.7" width="183" height="24.65" shape-rendering="crispEdges"/><rect fill="#06101d" x="219.6" y="74.7" width="317.2" height="24.65" shape-rendering="crispEdges"/><rect fill="#06101d" x="536.8" y="74.7" width="24.4" height="24.65" shape-rendering="crispEdges"/><rect fill="#06101d" x="561.2" y="74.7" width="12.2" height="24.65" shape-rendering="crispEdges"/><rect fill="#06101d" x="0" y="99.1" width="12.2" height="24.65" shape-rendering="crispEdges"/><rect fill="#06101d" x="12.2" y="99.1" width="24.4" height="24.65" shape-rendering="crispEdges"/><rect fill="#06101d" x="36.6" y="99.1" width="207.4" height="24.65" shape-rendering="crispEdges"/><rect fill="#06101d" x="244" y="99.1" width="292.8" height="24.65" shape-rendering="crispEdges"/><rect fill="#06101d" x="536.8" y="99.1" width="24.4" height="24.65" shape-rendering="crispEdges"/><rect fill="#06101d" x="561.2" y="99.1" width="12.2" height="24.65" shape-rendering="crispEdges"/><rect fill="#06101d" x="0" y="123.5" width="12.2" height="24.65" shape-rendering="crispEdges"/><rect fill="#06101d" x="12.2" y="123.5" width="24.4" height="24.65" shape-rendering="crispEdges"/><rect fill="#06101d" x="36.6" y="123.5" width="122" height="24.65" shape-rendering="crispEdges"/><rect fill="#06101d" x="158.6" y="123.5" width="378.2" height="24.65" shape-rendering="crispEdges"/><rect fill="#06101d" x="536.8" y="123.5" width="24.4" height="24.65" shape-rendering="crispEdges"/><rect fill="#06101d" x="561.2" y="123.5" width="12.2" height="24.65" shape-rendering="crispEdges"/><rect fill="#06101d" x="0" y="147.9" width="12.2" height="24.65" shape-rendering="crispEdges"/><rect fill="#06101d" x="12.2" y="147.9" width="24.4" height="24.65" shape-rendering="crispEdges"/><rect fill="#06101d" x="36.6" y="147.9" width="12.2" height="24.65" shape-rendering="crispEdges"/><rect fill="#06101d" x="48.8" y="147.9" width="488" height="24.65" shape-rendering="crispEdges"/><rect fill="#06101d" x="536.8" y="147.9" width="24.4" height="24.65" shape-rendering="crispEdges"/><rect fill="#06101d" x="561.2" y="147.9" width="12.2" height="24.65" shape-rendering="crispEdges"/><rect fill="#06101d" x="0" y="172.3" width="12.2" height="24.65" shape-rendering="crispEdges"/><rect fill="#06101d" x="12.2" y="172.3" width="24.4" height="24.65" shape-rendering="crispEdges"/><rect fill="#06101d" x="36.6" y="172.3" width="183" height="24.65" shape-rendering="crispEdges"/><rect fill="#06101d" x="219.6" y="172.3" width="317.2" height="24.65" shape-rendering="crispEdges"/><rect fill="#06101d" x="536.8" y="172.3" width="24.4" height="24.65" shape-rendering="crispEdges"/><rect fill="#06101d" x="561.2" y="172.3" width="12.2" height="24.65" shape-rendering="crispEdges"/><rect fill="#06101d" x="0" y="196.7" width="12.2" height="24.65" shape-rendering="crispEdges"/><rect fill="#06101d" x="12.2" y="196.7" width="24.4" height="24.65" shape-rendering="crispEdges"/><rect fill="#06101d" x="36.6" y="196.7" width="12.2" height="24.65" shape-rendering="crispEdges"/><rect fill="#06101d" x="48.8" y="196.7" width="488" height="24.65" shape-rendering="crispEdges"/><rect fill="#06101d" x="536.8" y="196.7" width="24.4" height="24.65" shape-rendering="crispEdges"/><rect fill="#06101d" x="561.2" y="196.7" width="12.2" height="24.65" shape-rendering="crispEdges"/><rect fill="#06101d" x="0" y="221.1" width="12.2" height="24.65" shape-rendering="crispEdges"/><rect fill="#06101d" x="12.2" y="221.1" width="24.4" height="24.65" shape-rendering="crispEdges"/><rect fill="#06101d" x="36.6" y="221.1" width="48.8" height="24.65" shape-rendering="crispEdges"/><rect fill="#06101d" x="85.4" y="221.1" width="451.4" height="24.65" shape-rendering="crispEdges"/><rect fill="#06101d" x="536.8" y="221.1" width="24.4" height="24.65" shape-rendering="crispEdges"/><rect fill="#06101d" x="561.2" y="221.1" width="12.2" height="24.65" shape-rendering="crispEdges"/><rect fill="#06101d" x="0" y="245.5" width="12.2" height="24.65" shape-rendering="crispEdges"/><rect fill="#06101d" x="12.2" y="245.5" width="24.4" height="24.65" shape-rendering="crispEdges"/><rect fill="#06101d" x="36.6" y="245.5" width="500.2" height="24.65" shape-rendering="crispEdges"/><rect fill="#06101d" x="536.8" y="245.5" width="24.4" height="24.65" shape-rendering="crispEdges"/><rect fill="#06101d" x="561.2" y="245.5" width="12.2" height="24.65" shape-rendering="crispEdges"/><rect fill="#06101d" x="0" y="269.9" width="12.2" height="24.65" shape-rendering="crispEdges"/><rect fill="#06101d" x="12.2" y="269.9" width="24.4" height="24.65" shape-rendering="crispEdges"/><rect fill="#06101d" x="36.6" y="269.9" width="500.2" height="24.65" shape-rendering="crispEdges"/><rect fill="#06101d" x="536.8" y="269.9" width="24.4" height="24.65" shape-rendering="crispEdges"/><rect fill="#06101d" x="561.2" y="269.9" width="12.2" height="24.65" shape-rendering="crispEdges"/><rect fill="#06101d" x="0" y="294.3" width="12.2" height="24.65" shape-rendering="crispEdges"/><rect fill="#06101d" x="12.2" y="294.3" width="549" height="24.65" shape-rendering="crispEdges"/><rect fill="#06101d" x="561.2" y="294.3" width="12.2" height="24.65" shape-rendering="crispEdges"/><rect fill="#06101d" x="0" y="318.7" width="573.4" height="24.65" shape-rendering="crispEdges"/>
    <g class="terminal-102656438-matrix">
    <text class="terminal-102656438-r1" x="0" y="20" textLength="24.4" clip-path="url(#terminal-102656438-line-0)">+-</text><text class="terminal-102656438-r1" x="24.4" y="20" textLength="207.4" clip-path="url(#terminal-102656438-line-0)">&#160;PROPOSED&#160;CHANGE&#160;</text><text class="terminal-102656438-r1" x="231.8" y="20" textLength="317.2" clip-path="url(#terminal-102656438-line-0)">--------------------------</text><text class="terminal-102656438-r1" x="549" y="20" textLength="24.4" clip-path="url(#terminal-102656438-line-0)">-+</text><text class="terminal-102656438-r2" x="1317.6" y="20" textLength="12.2" clip-path="url(#terminal-102656438-line-0)">
</text><text class="terminal-102656438-r1" x="0" y="44.4" textLength="12.2" clip-path="url(#terminal-102656438-line-1)">|</text><text class="terminal-102656438-r1" x="561.2" y="44.4" textLength="12.2" clip-path="url(#terminal-102656438-line-1)">|</text><text class="terminal-102656438-r2" x="1317.6" y="44.4" textLength="12.2" clip-path="url(#terminal-102656438-line-1)">
</text><text class="terminal-102656438-r1" x="0" y="68.8" textLength="12.2" clip-path="url(#terminal-102656438-line-2)">|</text><text class="terminal-102656438-r2" x="36.6" y="68.8" textLength="183" clip-path="url(#terminal-102656438-line-2)">---&#160;a/README.md</text><text class="terminal-102656438-r1" x="561.2" y="68.8" textLength="12.2" clip-path="url(#terminal-102656438-line-2)">|</text><text class="terminal-102656438-r2" x="1317.6" y="68.8" textLength="12.2" clip-path="url(#terminal-102656438-line-2)">
</text><text class="terminal-102656438-r1" x="0" y="93.2" textLength="12.2" clip-path="url(#terminal-102656438-line-3)">|</text><text class="terminal-102656438-r2" x="36.6" y="93.2" textLength="183" clip-path="url(#terminal-102656438-line-3)">+++&#160;b/README.md</text><text class="terminal-102656438-r1" x="561.2" y="93.2" textLength="12.2" clip-path="url(#terminal-102656438-line-3)">|</text><text class="terminal-102656438-r2" x="1317.6" y="93.2" textLength="12.2" clip-path="url(#terminal-102656438-line-3)">
</text><text class="terminal-102656438-r1" x="0" y="117.6" textLength="12.2" clip-path="url(#terminal-102656438-line-4)">|</text><text class="terminal-102656438-r2" x="36.6" y="117.6" textLength="207.4" clip-path="url(#terminal-102656438-line-4)">@@&#160;-42,3&#160;+42,6&#160;@@</text><text class="terminal-102656438-r1" x="561.2" y="117.6" textLength="12.2" clip-path="url(#terminal-102656438-line-4)">|</text><text class="terminal-102656438-r2" x="1317.6" y="117.6" textLength="12.2" clip-path="url(#terminal-102656438-line-4)">
</text><text class="terminal-102656438-r1" x="0" y="142" textLength="12.2" clip-path="url(#terminal-102656438-line-5)">|</text><text class="terminal-102656438-r2" x="36.6" y="142" textLength="122" clip-path="url(#terminal-102656438-line-5)">&#160;##&#160;Author</text><text class="terminal-102656438-r1" x="561.2" y="142" textLength="12.2" clip-path="url(#terminal-102656438-line-5)">|</text><text class="terminal-102656438-r2" x="1317.6" y="142" textLength="12.2" clip-path="url(#terminal-102656438-line-5)">
</text><text class="terminal-102656438-r1" x="0" y="166.4" textLength="12.2" clip-path="url(#terminal-102656438-line-6)">|</text><text class="terminal-102656438-r1" x="561.2" y="166.4" textLength="12.2" clip-path="url(#terminal-102656438-line-6)">|</text><text class="terminal-102656438-r2" x="1317.6" y="166.4" textLength="12.2" clip-path="url(#terminal-102656438-line-6)">
</text><text class="terminal-102656438-r1" x="0" y="190.8" textLength="12.2" clip-path="url(#terminal-102656438-line-7)">|</text><text class="terminal-102656438-r2" x="36.6" y="190.8" textLength="183" clip-path="url(#terminal-102656438-line-7)">&#160;Aritrajit&#160;Guha</text><text class="terminal-102656438-r1" x="561.2" y="190.8" textLength="12.2" clip-path="url(#terminal-102656438-line-7)">|</text><text class="terminal-102656438-r2" x="1317.6" y="190.8" textLength="12.2" clip-path="url(#terminal-102656438-line-7)">
</text><text class="terminal-102656438-r1" x="0" y="215.2" textLength="12.2" clip-path="url(#terminal-102656438-line-8)">|</text><text class="terminal-102656438-r2" x="36.6" y="215.2" textLength="12.2" clip-path="url(#terminal-102656438-line-8)">+</text><text class="terminal-102656438-r1" x="561.2" y="215.2" textLength="12.2" clip-path="url(#terminal-102656438-line-8)">|</text><text class="terminal-102656438-r2" x="1317.6" y="215.2" textLength="12.2" clip-path="url(#terminal-102656438-line-8)">
</text><text class="terminal-102656438-r1" x="0" y="239.6" textLength="12.2" clip-path="url(#terminal-102656438-line-9)">|</text><text class="terminal-102656438-r2" x="36.6" y="239.6" textLength="48.8" clip-path="url(#terminal-102656438-line-9)">+---</text><text class="terminal-102656438-r1" x="561.2" y="239.6" textLength="12.2" clip-path="url(#terminal-102656438-line-9)">|</text><text class="terminal-102656438-r2" x="1317.6" y="239.6" textLength="12.2" clip-path="url(#terminal-102656438-line-9)">
</text><text class="terminal-102656438-r1" x="0" y="264" textLength="12.2" clip-path="url(#terminal-102656438-line-10)">|</text><text class="terminal-102656438-r2" x="36.6" y="264" textLength="500.2" clip-path="url(#terminal-102656438-line-10)">+Thank&#160;you&#160;for&#160;checking&#160;out&#160;this&#160;project!</text><text class="terminal-102656438-r1" x="561.2" y="264" textLength="12.2" clip-path="url(#terminal-102656438-line-10)">|</text><text class="terminal-102656438-r2" x="1317.6" y="264" textLength="12.2" clip-path="url(#terminal-102656438-line-10)">
</text><text class="terminal-102656438-r1" x="0" y="288.4" textLength="12.2" clip-path="url(#terminal-102656438-line-11)">|</text><text class="terminal-102656438-r1" x="561.2" y="288.4" textLength="12.2" clip-path="url(#terminal-102656438-line-11)">|</text><text class="terminal-102656438-r2" x="1317.6" y="288.4" textLength="12.2" clip-path="url(#terminal-102656438-line-11)">
</text><text class="terminal-102656438-r1" x="0" y="312.8" textLength="12.2" clip-path="url(#terminal-102656438-line-12)">|</text><text class="terminal-102656438-r1" x="561.2" y="312.8" textLength="12.2" clip-path="url(#terminal-102656438-line-12)">|</text><text class="terminal-102656438-r2" x="1317.6" y="312.8" textLength="12.2" clip-path="url(#terminal-102656438-line-12)">
</text><text class="terminal-102656438-r1" x="0" y="337.2" textLength="573.4" clip-path="url(#terminal-102656438-line-13)">+---------------------------------------------+</text><text class="terminal-102656438-r2" x="1317.6" y="337.2" textLength="12.2" clip-path="url(#terminal-102656438-line-13)">
</text>
    </g>
    </g>
</svg>
